# xmcd
#
# Track frame offsets: 
#        150
#        12430
#        23365
#        31857
#        35820
#        52265
#        66912
#        78365
#        103175
#        111852
#
# Disc length: 1864 seconds
#
# Revision: 0
# Processed by: cddbd v1.4PL0 Copyright (c) Steve Scherf et al.
# Submitted via: ExactAudioCopy v0.90b3
#
DISCID=7f07460a
DTITLE=Jerry Clower - More Clower Power
DYEAR=1900
DGENRE=Comedy
TTITLE0=Room 411
TTITLE1=Ole High Ball
TTITLE2=Marcel's Dream
TTITLE3=Baseball Umpire
TTITLE4=My Pet Peeve
TTITLE5=Snook's Prey
TTITLE6=Marcel Ledbetter Moving Company
TTITLE7=Crack, W.L. And Rover
TTITLE8=Mr. Doogah
TTITLE9=Ole Slantface
EXTD=
EXTT0=
EXTT1=
EXTT2=
EXTT3=
EXTT4=
EXTT5=
EXTT6=
EXTT7=
EXTT8=
EXTT9=
PLAYORDER=
